# xmcd
# 
# Track frame offsets:
#     150
#     26202
#     45702
#     51247
#     71177
#     91355
#     103987
#     123372
#     129207
#     135540
#     144497
#     149067
#     161960
#     176802
#     185417
#     203850
# 
# Disc length: 2927
# 
# Revision: 1
# Processed by: cddbd v1.5.2PL0 Copyright (c) Steve Scherf et al.
# Submitted via: fre:ac v1.0.17
# 
DISCID=000b6d10
DTITLE=Various / Streisand Barbra (1994) - The Concert, Act 01
DYEAR=1994
DGENRE=Vocal
TTITLE0=Barbra Streisand / Overture
TTITLE1=Barbra Streisand / As If We Never Said Goodbye
TTITLE2=Barbra Streisand / Opening Remarks
TTITLE3=Barbra Streisand / I'm Still Here/Everybody Says Don't/Don't Rain On My Parade
TTITLE4=Barbra Streisand / Can't Help Lovin' That Man
TTITLE5=Barbra Streisand / I'll Know (With Marlon Brando)
TTITLE6=Barbra Streisand / People
TTITLE7=Barbra Streisand / Lover Man
TTITLE8=Barbra Streisand / Therapist Dialogue #1
TTITLE9=Barbra Streisand / Will He Like Me?
TTITLE10=Barbra Streisand / Therapist Dialogue #2
TTITLE11=Barbra Streisand / He Touched Me
TTITLE12=Barbra Streisand / Evergreen
TTITLE13=Barbra Streisand / Therapist Dialogue #3
TTITLE14=Barbra Streisand / The Man That Got Away
TTITLE15=Barbra Streisand / On A Clear Day (You Can See Forever)
EXTD=
EXTT0=
EXTT1=
EXTT2=
EXTT3=
EXTT4=
EXTT5=
EXTT6=
EXTT7=
EXTT8=
EXTT9=
EXTT10=
EXTT11=
EXTT12=
EXTT13=
EXTT14=
EXTT15=
PLAYORDER=
